<svg xmlns="http://www.w3.org/2000/svg" viewBox="0 0 1024 1536" width="1024" height="1536" data-char="liuchenghuan" data-expr="default" data-bare="1">
<!-- 柳承欢 · default · 无朱砂 · 稿托在胸前、偏向主角那一侧。朱砂是主角暂借的系稿朱绳，在腕上；归还之后收回（_bare） -->
<path d="M391,400 Q509.5,378 625,409 Q619,464.5 566,524.5 Q588.5,1073.5 655.5,1410 Q509.5,1432 336,1410 Q416.5,1073.5 453,524.5 Q397,464.5 391,400 Q391,400 391,400z" fill="var(--c-char-2, #55524A)"/><polygon points="453,529.5 463,533 473.5,534.5 483.5,535.5 494,536 504.5,536.5 515,536.5 525,536 535.5,535.5 546,534.5 556.5,533 566,528.5 566,528.5 555.5,527.5 545.5,528.5 535,529.5 525,530 514.5,530.5 504.5,530.5 494.5,530 484,529.5 474,528.5 463.5,527.5 453,527.5" fill="var(--c-ground, #EDE7DA)" opacity="0.45"/>
<polygon points="381,410.5 341.5,420 328,442.5 319,465.5 315.5,492 324.5,523.5 349.5,546.5 377,554.5 401.5,553 425.5,547 451,537.5 466,490.5 466,490.5 427.5,462 407,465 393.5,464.5 388.5,463 394.5,463.5 406,474 410,485.5 409.5,486.5 411,477 417,461.5 405,426" fill="var(--c-char-2, #55524A)"/><path d="M440,480.5 Q466,480.5 492,480.5 Q422,498.5 436,516.5 Q476,524.5 496,508.5 Q468,494.5 440,480.5z" fill="var(--c-char-2, #55524A)"/><polygon points="448,495 450.5,497.5 454,498.5 457.5,499.5 461,500 464.5,500.5 467.5,500.5 471,500 474.5,499.5 478,498.5 481.5,497.5 484,494.5 484,494.5 480,494.5 477,495.5 474,496 470.5,496.5 467.5,496.5 464.5,496.5 461.5,496.5 458,496 455,495.5 452,494.5 448,494" fill="var(--c-ground, #EDE7DA)" opacity="0.5"/><polygon points="610.5,434.5 599,470.5 606,487.5 609,498 609,500 611,488 626,471 640,467.5 639.5,469.5 629.5,469 612.5,465 574,490.5 574,490.5 580.5,537.5 602,548.5 622.5,556.5 645.5,559.5 675.5,551.5 700,522.5 703.5,492.5 697.5,469.5 687.5,449 674,427.5 635,419" fill="var(--c-char-2, #55524A)"/><path d="M548,480.5 Q574,480.5 600,480.5 Q618,498.5 604,516.5 Q564,524.5 544,508.5 Q546,494.5 548,480.5z" fill="var(--c-char-2, #55524A)"/><polygon points="556,495 558.5,497.5 562,498.5 565.5,499.5 569,500 572.5,500.5 575.5,500.5 579,500 582.5,499.5 586,498.5 589.5,497.5 592,494.5 592,494.5 588,494.5 585,495.5 582,496 578.5,496.5 575.5,496.5 572.5,496.5 569.5,496.5 566,496 563,495.5 560,494.5 556,494" fill="var(--c-ground, #EDE7DA)" opacity="0.5"/>
<polygon points="515.5,340.5 505,348 503.5,355.5 501.5,362.5 500,369.5 498.5,376 497.5,382.5 497,389 496.5,395 496.5,401 496.5,407 520,412.5 520,412.5 543.5,407 543.5,401 543.5,395 543,389 542.5,382.5 541.5,376 540,369.5 538.5,362.5 536.5,355.5 535,348 524.5,340.5" fill="var(--c-char-2, #55524A)"/>
<g transform="rotate(6 520 294.5)"><ellipse cx="520" cy="294.5" rx="56" ry="64" fill="var(--c-char-2, #55524A)"/></g>
<g transform="rotate(6 520 294.5)"><path d="M458,298.5 Q454,248.5 472,240.5 Q520,224.5 568,240.5 Q586,248.5 582,298.5 Q520,316.5 520,310.5 Q489,304.5 458,298.5z" fill="var(--c-char-2, #55524A)"/><path d="M466,246.5 Q454,234.5 474,216.5 Q514,186.5 578,186.5 Q594,198.5 570,218.5 Q576,230.5 564,246.5 Q515,246.5 466,246.5z" fill="var(--c-char-2, #55524A)"/></g>
<g transform="rotate(-5 520 464.5)"><rect x="404" y="464.5" width="208" height="62" rx="3" fill="var(--c-ground, #EDE7DA)"/><polygon points="420,485 438,486.5 455.5,487 473,487 490,487 507,487.5 523,487.5 539,487 555,487 570.5,487 585.5,486.5 600,484.5 600,484.5 585.5,483 570,483.5 555,483.5 539,483.5 523,483.5 507,483.5 490,483.5 473,483.5 455.5,483.5 438,483 420,484" fill="var(--c-char-3, #8C8880)" opacity="0.55"/><polygon points="420,505 438,506.5 455,507 472,507 488,507 503.5,507.5 518.5,507.5 532.5,507 546.5,507 559.5,507 572,506.5 584,504.5 584,504.5 572,503 559.5,503.5 546.5,503.5 532.5,503.5 518.5,503.5 503.5,503.5 488,503.5 472,503.5 455,503.5 438,503 420,504" fill="var(--c-char-3, #8C8880)" opacity="0.45"/></g>
<polygon points="391,403.5 414.5,404 437,402.5 459.5,401.5 481.5,401 503,401 524.5,401.5 545,402.5 565.5,404 585.5,406 605.5,408.5 625,411 625,411 605.5,406 586,403 566,400 545.5,398 524.5,396 503.5,395 481.5,394.5 459.5,395 437,395.5 414,397 390.5,401" fill="var(--c-char-line, #1A1815)"/>
<polygon points="401.5,1404.5 421,1407 441,1408.5 460.5,1410 480,1410.5 499,1411.5 518,1411.5 536.5,1411.5 555,1411 573,1410 591,1408.5 608.5,1404 608.5,1404 590.5,1402.5 573,1404 555,1405 536.5,1406 518,1406.5 499,1406.5 480,1406.5 460.5,1406 441,1405.5 421.5,1404.5 401.5,1403.5" fill="var(--c-char-line, #1A1815)"/>
<polygon points="475,564.5 469,637.5 463,711 457,784 451.5,857.5 445.5,930.5 439.5,1003.5 434,1077 428,1150 422.5,1223.5 417,1296.5 413.5,1370 413.5,1370 421.5,1297 427,1223.5 432.5,1150.5 438,1077.5 443.5,1004 449,931 454,857.5 459.5,784.5 465,711 470,638 475.5,564.5" fill="var(--c-char-line, #1A1815)" opacity="0.55"/>
</svg>
