<svg xmlns="http://www.w3.org/2000/svg" viewBox="0 0 1024 1536" width="1024" height="1536" data-char="liuchenghuan" data-expr="open">
<!-- 柳承欢 · open · 稿托在胸前、偏向主角那一侧。朱砂是主角暂借的系稿朱绳，在腕上；归还之后收回（_bare） -->
<path d="M399,412.5 Q514.5,390.5 633,399.5 Q627,466 571,526 Q607.5,1074 688,1410 Q514.5,1432 368.5,1410 Q435.5,1074 458,526 Q405,466 399,412.5 Q399,412.5 399,412.5z" fill="var(--c-robe-liuchenghuan, var(--c-char-2, #55524A))"/><polygon points="457.5,531 467.5,534.5 478,536 488.5,537 499,537.5 509,538 519.5,538 530,537.5 540.5,537 550.5,536 561,534.5 571,530 571,530 560.5,529 550,530 540,531 529.5,531.5 519.5,532 509.5,532 499,531.5 489,531 478.5,530 468.5,529 458,529" fill="var(--c-ground, #EDE7DA)" opacity="0.45"/>
<polygon points="389,422.5 348.5,434 334,458.5 323.5,483 318.5,508.5 321,536.5 335.5,564 359,581.5 384.5,589 409.5,589.5 435,585.5 456,544 456,544 427,510 410.5,508 401.5,505 401,502.5 406.5,505.5 411,512 411.5,514 412.5,507.5 416,494.5 423.5,476 413,438.5" fill="var(--c-robe-liuchenghuan, var(--c-char-2, #55524A))"/><path d="M430,534 Q456,534 482,534 Q412,552 426,570 Q466,578 486,562 Q458,548 430,534z" fill="var(--c-robe-liuchenghuan, var(--c-char-2, #55524A))"/><polygon points="438,548.5 440.5,551 444,552 447.5,553 451,553.5 454.5,554 457.5,554 461,553.5 464.5,553 468,552 471.5,551 474,548 474,548 470,548 467,549 464,549.5 460.5,550 457.5,550 454.5,550 451.5,550 448,549.5 445,549 442,548 438,547.5" fill="var(--c-ground, #EDE7DA)" opacity="0.5"/><polygon points="619.5,425.5 610.5,464.5 619.5,484.5 625,500 627.5,510.5 628.5,514.5 629.5,512.5 634,508.5 637.5,508.5 635,511.5 625.5,516 608,554 608,554 631,591.5 654.5,590.5 678.5,584 700.5,568.5 716,544.5 721.5,518 719.5,492.5 711.5,468 699.5,444.5 684,420 643,409.5" fill="var(--c-robe-liuchenghuan, var(--c-char-2, #55524A))"/><path d="M582,544 Q608,544 634,544 Q652,562 638,580 Q598,588 578,572 Q580,558 582,544z" fill="var(--c-robe-liuchenghuan, var(--c-char-2, #55524A))"/><polygon points="590,558.5 592.5,561 596,562 599.5,563 603,563.5 606.5,564 609.5,564 613,563.5 616.5,563 620,562 623.5,561 626,558 626,558 622,558 619,559 616,559.5 612.5,560 609.5,560 606.5,560 603.5,560 600,559.5 597,559 594,558 590,557.5" fill="var(--c-ground, #EDE7DA)" opacity="0.5"/>
<polygon points="525.5,342 515,349.5 513.5,357 511.5,364 510,371 508.5,377.5 507.5,384 507,390.5 506.5,396.5 506.5,402.5 506.5,408.5 530,414 530,414 553.5,408.5 553.5,402.5 553.5,396.5 553,390.5 552.5,384 551.5,377.5 550,371 548.5,364 546.5,357 545,349.5 534.5,342" fill="var(--c-char-2, #55524A)"/>
<g transform="rotate(-6 530 296)"><ellipse cx="530" cy="296" rx="56" ry="64" fill="var(--c-char-2, #55524A)"/></g>
<g transform="rotate(-6 530 296)"><path d="M468,300 Q464,250 482,242 Q530,226 578,242 Q596,250 592,300 Q530,318 530,312 Q499,306 468,300z" fill="var(--c-char-2, #55524A)"/><path d="M476,248 Q464,236 484,218 Q524,188 588,188 Q604,200 580,220 Q586,232 574,248 Q525,248 476,248z" fill="var(--c-char-2, #55524A)"/></g>
<g transform="rotate(-5 530 466)"><rect x="414" y="466" width="208" height="62" rx="3" fill="var(--c-ground, #EDE7DA)"/><polygon points="430,486.5 448,488 465.5,488.5 483,488.5 500,488.5 517,489 533,489 549,488.5 565,488.5 580.5,488.5 595.5,488 610,486 610,486 595.5,484.5 580,485 565,485 549,485 533,485 517,485 500,485 483,485 465.5,485 448,484.5 430,485.5" fill="var(--c-char-3, #8C8880)" opacity="0.55"/><polygon points="430,506.5 448,508 465,508.5 482,508.5 498,508.5 513.5,509 528.5,509 542.5,508.5 556.5,508.5 569.5,508.5 582,508 594,506 594,506 582,504.5 569.5,505 556.5,505 542.5,505 528.5,505 513.5,505 498,505 482,505 465,505 448,504.5 430,505.5" fill="var(--c-char-3, #8C8880)" opacity="0.45"/></g><polygon class="accent" points="577.5,571 581.5,575 586.5,576.5 591.5,578 596.5,579 601.5,579 606.5,579 611.5,578.5 616.5,577 621.5,575.5 626.5,573 630,568 630,568 624,567.5 619.5,569 615,570.5 610.5,571 606,571.5 601.5,572 597,571.5 593,571 588.5,570.5 584,569 578.5,569" fill="var(--c-accent, var(--c-ink-4, #A8232A))"/><circle class="accent" cx="628" cy="574" r="5" fill="var(--c-accent, var(--c-ink-4, #A8232A))"/>
<polygon points="399.5,415.5 423,416 446,414 468.5,412 491,410.5 512.5,408.5 534,407.5 554.5,406 575,405 595,404 614,403 633,401.5 633,401.5 614,400.5 594.5,400.5 575,401 554.5,401.5 533.5,402 512,403 490.5,404 468.5,405.5 445.5,407 422.5,409 399,413" fill="var(--c-char-line, #1A1815)"/>
<polygon points="401.5,1404.5 421.5,1407 442,1408.5 462.5,1410 483.5,1410.5 505,1411.5 526,1411.5 548,1411.5 570,1411 592,1410 614.5,1408.5 636.5,1404 636.5,1404 614,1402.5 591.5,1404 569.5,1405 548,1406 526,1406.5 505,1406.5 483.5,1406.5 463,1406 442,1405.5 421.5,1404.5 401.5,1403.5" fill="var(--c-char-line, #1A1815)"/>
<polygon points="548.5,566 554,639 559,712.5 564.5,785.5 570,858.5 575,931.5 580.5,1004.5 586,1078 591.5,1151 597,1224 602.5,1297 610.5,1370 610.5,1370 607,1296.5 601.5,1223.5 596,1150.5 590,1077.5 584.5,1004.5 578.5,931.5 572.5,858.5 567,785 561,712 555,639 549,566" fill="var(--c-char-line, #1A1815)" opacity="0.55"/>
</svg>
